<svg xmlns="http://www.w3.org/2000/svg" xmlns:xlink="http://www.w3.org/1999/xlink" width="35" height="40" viewBox="0 0 35 40">
    <defs>
        <filter id="prefix__a" width="182.1%" height="153.7%" x="-41%" y="-21%" filterUnits="objectBoundingBox">
            <feMorphology in="SourceAlpha" radius="5" result="shadowSpreadOuter1"/>
            <feOffset dy="26" in="shadowSpreadOuter1" result="shadowOffsetOuter1"/>
            <feGaussianBlur in="shadowOffsetOuter1" result="shadowBlurOuter1" stdDeviation="37"/>
            <feColorMatrix in="shadowBlurOuter1" result="shadowMatrixOuter1" values="0 0 0 0 0 0 0 0 0 0 0 0 0 0 0 0 0 0 0.151360358 0"/>
            <feOffset dx="2" dy="2" in="SourceAlpha" result="shadowOffsetOuter2"/>
            <feGaussianBlur in="shadowOffsetOuter2" result="shadowBlurOuter2" stdDeviation="3"/>
            <feColorMatrix in="shadowBlurOuter2" result="shadowMatrixOuter2" values="0 0 0 0 0 0 0 0 0 0 0 0 0 0 0 0 0 0 0.100360577 0"/>
            <feMerge>
                <feMergeNode in="shadowMatrixOuter1"/>
                <feMergeNode in="shadowMatrixOuter2"/>
            </feMerge>
        </filter>
        <path id="prefix__b" d="M1270 170H1560V613H1270z"/>
    </defs>
    <g fill="none" fill-rule="evenodd" transform="translate(-1290 -416)">
        <path fill="#FFF" d="M0 0H1920V1080H0z"/>
        <use fill="#000" filter="url(#prefix__a)" xlink:href="#prefix__b"/>
        <use fill="#FFF" xlink:href="#prefix__b"/>
        <g>
            <path fill="#8BC34A" fill-rule="nonzero" d="M27.447 15.116v14.97c0 1.378-1.118 2.496-2.495 2.496v4.845c0 1.378-1.118 2.496-2.496 2.496-1.377 0-2.495-1.118-2.495-2.496v-4.845h-4.99v4.845c0 1.378-1.118 2.496-2.495 2.496S9.98 38.805 9.98 37.427v-4.845c-1.377 0-2.495-1.118-2.495-2.495V15.116h19.96zm-24.952-.145c1.378 0 2.496 1.118 2.496 2.495v9.98c0 1.378-1.118 2.496-2.496 2.496C1.118 29.942 0 28.824 0 27.447v-9.98c0-1.378 1.118-2.496 2.495-2.496zm29.942 0c1.377 0 2.495 1.118 2.495 2.495v9.98c0 1.378-1.118 2.496-2.495 2.496s-2.495-1.118-2.495-2.495v-9.98c0-1.378 1.118-2.496 2.495-2.496zM23.991.452c.44-.531 1.223-.604 1.757-.167.531.44.606 1.225.167 1.757l-2.221 2.692c2.27 1.829 3.753 4.598 3.753 7.742H7.486c0-3.124 1.464-5.878 3.712-7.707l-2.19-2.74c-.43-.539-.342-1.322.194-1.754.54-.432 1.323-.342 1.754.195l2.363 2.954c1.265-.584 2.663-.928 4.147-.928 1.465 0 2.845.332 4.097.898zm-9.02 5.786c-.689 0-1.247.56-1.247 1.248 0 .689.558 1.247 1.247 1.247.689 0 1.248-.558 1.248-1.247 0-.689-.56-1.248-1.248-1.248zm4.99 0c-.688 0-1.247.56-1.247 1.248 0 .689.559 1.247 1.247 1.247.689 0 1.248-.558 1.248-1.247 0-.689-.559-1.248-1.248-1.248z" transform="translate(1290 416)"/>
        </g>
    </g>
</svg>
