<?xml version="1.0" encoding="UTF-8"?>
<svg viewBox="0 0 30 36" version="1.1" xmlns="http://www.w3.org/2000/svg" xmlns:xlink="http://www.w3.org/1999/xlink">
    <g stroke="none" stroke-width="1" fill="none" fill-rule="evenodd">
        <g transform="translate(-1415.000000, -416.000000)" fill="#000000" fill-rule="nonzero">
            <g transform="translate(1415.000000, 416.000000)">
                <g>
                    <path d="M9.79136719,36 C4.43348437,35.9691328 0.001546875,25.0318828 0.001546875,19.4617969 C0.001546875,10.3630781 6.82713281,8.371125 9.45766406,8.371125 C10.6431328,8.371125 11.9089687,8.83666406 13.0254609,9.248625 C13.8062109,9.53599219 14.6136797,9.83264062 15.0627656,9.83264062 C15.3315703,9.83264062 15.9650156,9.58028906 16.5242813,9.358875 C17.7169922,8.88405469 19.2011484,8.29392187 20.9294297,8.29392187 C20.9325234,8.29392187 20.9366719,8.29392187 20.9396953,8.29392187 C22.2302109,8.29392187 26.1431016,8.57714062 28.4955469,12.1099219 L29.0465859,12.9379922 L28.2535313,13.5364219 C27.1205859,14.3912812 25.0533984,15.9506719 25.0533984,19.0395703 C25.0533984,22.698 27.3945234,24.1049531 28.5192422,24.7816406 C29.0157188,25.0803281 29.5296328,25.3882969 29.5296328,26.0618906 C29.5296328,26.5016953 26.0194922,35.9454375 20.9221875,35.9454375 C19.6749141,35.9454375 18.7932656,35.5705313 18.0156094,35.2399219 C17.2287422,34.9051641 16.5499453,34.6168125 15.4283203,34.6168125 C14.8597734,34.6168125 14.1408281,34.8856172 13.3796953,35.1709453 C12.3395625,35.5591406 11.16225,36 9.82638281,36 L9.79136719,36 Z" id="Path"></path>
                    <path d="M21.4694297,0 C21.6021797,4.78659375 18.1790156,8.1073125 14.7598594,7.89904688 C14.1964453,4.07917969 18.1785937,0 21.4694297,0 Z"></path>
                </g>
            </g>
        </g>
    </g>
</svg>